<svg width="41" height="41" viewBox="0 0 41 41" fill="none" xmlns="http://www.w3.org/2000/svg">
<path d="M17.6416 24.175L13.252 19.7854C12.8777 19.4111 12.4013 19.2239 11.8228 19.2239C11.2444 19.2239 10.768 19.4111 10.3937 19.7854C10.0194 20.1597 9.83221 20.6361 9.83221 21.2146C9.83221 21.793 10.0194 22.2694 10.3937 22.6437L16.2124 28.4625C16.6208 28.8708 17.0971 29.075 17.6416 29.075C18.186 29.075 18.6624 28.8708 19.0708 28.4625L30.6062 16.9271C30.9805 16.5528 31.1676 16.0764 31.1676 15.4979C31.1676 14.9194 30.9805 14.443 30.6062 14.0687C30.2319 13.6944 29.7555 13.5073 29.177 13.5073C28.5985 13.5073 28.1221 13.6944 27.7478 14.0687L17.6416 24.175ZM20.4999 40.9166C17.6756 40.9166 15.0214 40.3804 12.5374 39.3078C10.0534 38.2353 7.89263 36.7809 6.05513 34.9448C4.21763 33.1073 2.76328 30.9465 1.69209 28.4625C0.620891 25.9784 0.0846131 23.3243 0.083252 20.5C0.083252 17.6757 0.61953 15.0215 1.69209 12.5375C2.76464 10.0535 4.21899 7.89269 6.05513 6.05519C7.89263 4.21769 10.0534 2.76334 12.5374 1.69215C15.0214 0.620952 17.6756 0.0846741 20.4999 0.083313C23.3242 0.083313 25.9784 0.619591 28.4624 1.69215C30.9464 2.7647 33.1072 4.21905 34.9447 6.05519C36.7822 7.89269 38.2372 10.0535 39.3098 12.5375C40.3823 15.0215 40.9179 17.6757 40.9166 20.5C40.9166 23.3243 40.3803 25.9784 39.3077 28.4625C38.2352 30.9465 36.7808 33.1073 34.9447 34.9448C33.1072 36.7823 30.9464 38.2373 28.4624 39.3098C25.9784 40.3824 23.3242 40.918 20.4999 40.9166ZM20.4999 36.8333C25.0596 36.8333 28.9218 35.251 32.0864 32.0864C35.251 28.9219 36.8332 25.0597 36.8332 20.5C36.8332 15.9403 35.251 12.0781 32.0864 8.91352C28.9218 5.74894 25.0596 4.16665 20.4999 4.16665C15.9402 4.16665 12.078 5.74894 8.91346 8.91352C5.74888 12.0781 4.16658 15.9403 4.16658 20.5C4.16658 25.0597 5.74888 28.9219 8.91346 32.0864C12.078 35.251 15.9402 36.8333 20.4999 36.8333Z" fill="#119A1E"/>
</svg>
